<svg viewBox="0 0 46 12" focusable="false" class="chakra-icon css-d9u6pl"><svg width="46" height="12" viewBox="0 0 46 12" fill="none" xmlns="http://www.w3.org/2000/svg"><path d="M10.5217 3.39819C10.5217 1.93179 9.33179 0.742676 7.86435 0.742676H0V6.82329C0 9.27191 1.98646 11.257 4.43682 11.257H7.88688C9.34185 11.257 10.5217 10.0784 10.5217 8.62396C10.5217 7.29213 9.44106 6.21221 8.10829 6.21221C9.44106 6.21221 10.5217 4.73001 10.5217 3.39819ZM6.09164 8.17092H4.94433V7.58762H6.09164C6.27039 7.58762 6.41513 7.71836 6.41513 7.87927C6.41513 8.04018 6.27039 8.17092 6.09164 8.17092ZM6.09164 4.41154H4.94433V3.82824H6.09164C6.27039 3.82824 6.41513 3.95898 6.41513 4.11989C6.41513 4.2808 6.27039 4.41154 6.09164 4.41154Z" fill="#353535"></path><path d="M11.8138 4.99724V11.257H14.8996C15.9396 11.257 16.7442 10.4146 16.7442 9.37536V8.1714H17.3912V11.257H18.6588C20.6889 11.257 22.335 9.61241 22.335 7.58331V0.742678H16.0709C13.7197 0.742678 11.8133 2.64727 11.8133 4.99724H11.8138ZM16.7447 4.41202H17.3917V5.88177H16.7447V4.41202Z" fill="#353535"></path><path d="M29.342 4.41154H31.7541C33.0868 4.41154 34.1675 3.42213 34.1675 2.09031V0.742678H28.0826C25.6322 0.742678 23.6458 2.72772 23.6458 5.17635V11.257H34.167V5.08584H31.755C30.4222 5.08584 29.1786 6.25627 29.1786 7.5881H28.5949V4.41154H29.3416" fill="#353535"></path><path d="M43.5865 3.82824C44.9193 3.82824 46 2.74832 46 1.41649V0.742678H39.9151C37.4647 0.742678 35.4783 2.72772 35.4783 5.17635C35.4783 6.50817 36.5589 7.5881 37.8917 7.5881H40.4686V8.1714H37.8917C36.5589 8.1714 35.4783 9.25132 35.4783 10.5831V11.257H41.5632C44.0135 11.257 46 9.27191 46 6.82329C46 5.49147 44.9193 4.41154 43.5865 4.41154H41.3394V3.82824H43.5865Z" fill="#353535"></path></svg></svg>